# xmcd CD database file
#
# Track frame offsets:
#	150
#	39577
#	129310
#	163547
#	209359
#	245410
#	290365
#	314417
#
# Disc length: 4721 seconds
#
# Revision: 3
# Processed by: cddbd v1.5.2PL0 Copyright (c) Steve Scherf et al.
# Submitted via: CDex 1.51
#
DISCID=6d126f08
DTITLE=Beethoven - Concerto pour piano N°5 ~ Symphonie N°5  (George Szell, Sächsische Staatskapelle Dresden)
DYEAR=1961
DGENRE=Classique
TTITLE0=''Coriolan''  Ouverture en ut mineur
TTITLE1=Concerto pour piano N°5 en mi bémol majeur Op.73 - I. Allegro
TTITLE2=Concerto pour piano N°5 en mi bémol majeur Op.73 - II. Adagio un pocco mosso
TTITLE3=Concerto pour piano N°5 en mi bémol majeur Op.73 - III. Rondo. Allegro
TTITLE4=Symphonie N°5 en ut mineur - I. Allegro con brio
TTITLE5=Symphonie N°5 en ut mineur - II. Andante con moto
TTITLE6=Symphonie N°5 en ut mineur - III. Allegro - attacca
TTITLE7=Symphonie N°5 en ut mineur - IV. Allegro
EXTD=YEAR: 1961
EXTT0=
EXTT1=
EXTT2=
EXTT3=
EXTT4=
EXTT5=
EXTT6=
EXTT7=
PLAYORDER=
